<svg xmlns="http://www.w3.org/2000/svg" xmlns:xlink="http://www.w3.org/1999/xlink" width="50" height="50" viewBox="0 0 50 50">
  <defs>
    <clipPath id="clip-path">
      <rect id="Rectangle_112" data-name="Rectangle 112" width="50" height="50" transform="translate(545 96)" fill="#fff" stroke="#707070" stroke-width="1"/>
    </clipPath>
  </defs>
  <g id="Mask_Group_19" data-name="Mask Group 19" transform="translate(-545 -96)" clip-path="url(#clip-path)">
    <g id="Nagoya_Logo" data-name="Nagoya Logo" transform="translate(545 96.232)">
      <g id="Group_3228" data-name="Group 3228">
        <circle id="Ellipse_101" data-name="Ellipse 101" cx="10.452" cy="10.452" r="10.452" transform="translate(17.481 18.628)" fill="#d33048"/>
        <g id="Group_3227" data-name="Group 3227">
          <path id="Path_974" data-name="Path 974" d="M27.784,49.769c-9.272,0-19.21-5.1-22.733-16.268a19.089,19.089,0,0,1-.515-11.2,10.911,10.911,0,0,1-1.878-1.329A8,8,0,0,1,0,14.922C0,3.207,19.077.133,19.891,0l.631,4.1-.316-2.061L20.522,4.1C20.356,4.138,4.154,6.88,4.154,14.922a3.73,3.73,0,0,0,1.3,2.958,6.144,6.144,0,0,0,.814.615C9.738,13.078,16.966,9.472,27.2,8.043c3.34-.465,14.573-1.695,18.827,1.894a4.939,4.939,0,0,1,1.828,3.672c.1,3.157-2.476,5.833-7.644,7.943a39.911,39.911,0,0,1-9.7,2.559h-.05c-7.76.8-16,1.28-21.985-.282a15.464,15.464,0,0,0,.582,8.425c3.473,10.984,14.54,14.823,23.2,12.878,7.794-1.761,15.454-8.575,13.527-22.4l4.121-.582c1,7.179-.266,13.543-3.656,18.429a21.6,21.6,0,0,1-13.078,8.608A25.323,25.323,0,0,1,27.784,49.769Zm-17.5-29.762c6.281,1.363,15.587.4,19.725-.017h.05a36.025,36.025,0,0,0,8.558-2.277c3.772-1.545,5.1-3.074,5.068-3.972,0-.166-.033-.349-.349-.615-2.077-1.761-9.405-1.811-15.57-.947C19.293,13.344,13.277,16.052,10.286,20.007Z" fill="#232323"/>
        </g>
      </g>
    </g>
  </g>
</svg>
