<svg xmlns="http://www.w3.org/2000/svg" xmlns:xlink="http://www.w3.org/1999/xlink" width="2115" height="637" viewBox="0 0 2115 637">
  <defs>
    <clipPath id="clip-path">
      <rect id="Rectangle_111" data-name="Rectangle 111" width="2115" height="637" transform="translate(-37 463)" fill="#fff" stroke="#707070" stroke-width="1"/>
    </clipPath>
  </defs>
  <g id="Mask_Group_18" data-name="Mask Group 18" transform="translate(37 -463)" clip-path="url(#clip-path)">
    <g id="Untitled-2" transform="translate(-36.637 475.863)" opacity="0.45">
      <path id="Path_952" data-name="Path 952" d="M1.1,367.636A1353.276,1353.276,0,0,1,267.435,228.59C305.583,213.749,345.723,200.4,386.66,201.3s83.169,18.925,99.3,52.491c33.666,70.121-57.77,163.15-8.865,225.2,29.383,37.351,90.539,36.355,141.935,31.773,101.695-9.164,204.286-18.526,302.2-47.112,97.81-28.586,191.936-78.487,252.594-154.086,40.24-50.1,64.045-108.767,96.516-163.051s77.79-107.074,141.736-128.588c62.551-21.116,131.676-8.566,192.832,12.052s119.424,49.1,183.669,60.658C1897.942,110.161,2019.258,75.1,2098.543,1.1" fill="none" stroke="#000" stroke-linecap="round" stroke-linejoin="round" stroke-miterlimit="10" stroke-width="2.103" stroke-dasharray="1.055 8.444"/>
      <path id="Path_953" data-name="Path 953" d="M2.689,378.094c80.978-54.782,169.525-99.6,262.256-134.066,37.451-13.944,76.794-26.494,116.934-25.3,40.14,1.1,81.476,18.725,98.01,51,34.363,67.431-50.4,156.477-1.494,215.641,12.152,14.642,29.383,23.108,49,27.59,28.088,6.375,60.957,4.681,90.639,1.793,99.7-9.861,200.1-20.02,295.224-50.2A659.124,659.124,0,0,0,1079.3,384.967c33.766-22.61,64.543-48.507,90.241-77.89,42.232-48.507,69.623-104.185,104.185-155.78,34.164-51.1,79.683-101.3,143.329-121.416,62.352-19.721,130.978-7.371,192.035,12.251,22.112,7.171,43.826,15.239,65.539,23.108,38.347,13.944,76.794,27.291,117.631,33.865,109.066,17.53,229.088-18.227,307.177-92.631" fill="none" stroke="#000" stroke-linecap="round" stroke-linejoin="round" stroke-miterlimit="10" stroke-width="2.103" stroke-dasharray="1.055 8.444"/>
      <path id="Path_954" data-name="Path 954" d="M4.383,388.553c79.384-53.885,166.736-96.814,258.172-129.086,36.754-13.148,75.4-24.7,114.544-23.407,39.343,1.394,79.782,18.427,96.715,49.4,35.06,64.742-43.128,149.9,5.777,206.079,12.152,13.944,29.184,21.813,48.407,26,27.69,5.877,59.862,4.084,88.846.9,97.711-10.558,195.92-21.714,288.252-53.288,58.766-20.12,115.141-49.7,166.736-84.065,34.363-22.909,66.037-48.407,93.129-76.993,44.323-47.013,75.1-99.5,111.755-148.509,35.857-48.009,81.575-95.52,144.823-114.245,62.153-18.327,130.281-6.275,191.238,12.45,22.012,6.773,43.726,14.442,65.439,21.913,38.248,13.148,76.695,25.6,117.333,31.475,108.667,15.439,227.594-20.917,304.288-95.719" fill="none" stroke="#000" stroke-linecap="round" stroke-linejoin="round" stroke-miterlimit="10" stroke-width="2.103" stroke-dasharray="1.055 8.444"/>
      <path id="Path_955" data-name="Path 955" d="M6.076,399.011c77.79-53.089,164.047-93.926,254.088-124.106C296.32,262.654,334.07,251.9,372.417,253.49c38.546,1.693,78.089,18.227,95.42,47.909,35.658,62.053-35.758,143.329,13.148,196.517,12.152,13.148,28.885,20.618,47.81,24.5,27.192,5.379,58.666,3.387,87.153.1,95.719-11.255,191.736-23.407,281.28-56.376,58.965-21.714,114.843-53.587,167.433-88.547,34.961-23.208,67.73-48.308,96.117-76,46.415-45.319,80.679-94.723,119.424-141.238,37.451-44.822,83.368-89.743,146.417-107.074,61.953-16.933,129.584-5.179,190.541,12.65,22.012,6.474,43.626,13.745,65.34,20.817,38.148,12.351,76.6,23.9,116.934,29.084,108.369,13.446,226-23.706,301.5-98.806" fill="none" stroke="#000" stroke-linecap="round" stroke-linejoin="round" stroke-miterlimit="10" stroke-width="2.103" stroke-dasharray="1.055 8.444"/>
      <path id="Path_956" data-name="Path 956" d="M7.669,409.469c76.2-52.192,161.457-90.938,249.9-119.225,35.459-11.355,72.412-21.315,109.862-19.423,37.65,1.892,76.5,17.929,94.026,46.415,36.455,59.264-28.487,136.755,20.419,186.856,12.152,12.45,28.686,19.423,47.212,22.909,26.793,4.98,57.571,2.789,85.46-.8,93.727-11.952,187.553-25.2,274.308-59.463,59.065-23.307,114.544-57.471,168.13-93.029,35.459-23.506,69.224-48.208,99.006-75,48.507-43.825,86.057-90.041,126.994-133.867,38.945-41.634,85.26-83.966,148.011-100,61.754-15.638,128.986-4.084,189.744,12.948,21.913,6.175,43.527,13.048,65.24,19.622,38.048,11.654,76.4,22.212,116.635,26.594,108.269,11.454,224.606-26.395,298.81-101.894" fill="none" stroke="#000" stroke-linecap="round" stroke-linejoin="round" stroke-miterlimit="10" stroke-width="2.103" stroke-dasharray="1.055 8.444"/>
      <path id="Path_957" data-name="Path 957" d="M9.363,419.928c74.6-51.3,158.768-88.049,245.821-114.245,34.762-10.458,71.017-19.522,107.572-17.431,36.853,2.191,74.8,17.63,92.731,44.822,37.152,56.575-21.116,130.182,27.789,177.294,12.152,11.654,28.387,18.227,46.614,21.415,26.395,4.582,56.475,2.092,83.766-1.693,91.735-12.65,183.37-27.092,267.335-62.551,59.264-25,114.245-61.356,168.927-97.412,36.056-23.805,70.818-48.108,101.894-74.1,50.6-42.232,91.336-85.36,134.664-126.6,40.339-38.447,87.153-78.189,149.6-92.83,61.654-14.243,128.289-2.988,188.947,13.148,21.913,5.777,43.427,12.251,65.141,18.427,38.048,10.857,76.3,20.618,116.237,24.2,107.771,9.462,222.912-29.084,295.822-104.982" fill="none" stroke="#000" stroke-linecap="round" stroke-linejoin="round" stroke-miterlimit="10" stroke-width="2.103" stroke-dasharray="1.055 8.444"/>
      <path id="Path_958" data-name="Path 958" d="M11.056,430.386c73.009-50.5,156.078-85.161,241.737-109.265,34.164-9.562,69.523-17.829,105.181-15.538,36.056,2.39,73.109,17.331,91.436,43.327,37.849,53.786-13.845,123.608,35.06,167.732,12.152,10.956,28.188,17.032,46.017,19.821,25.9,4.084,55.28,1.394,82.073-2.49,89.743-13.347,179.186-29.184,260.363-65.639,59.364-26.694,113.946-65.24,169.625-101.894,36.654-24.1,72.411-48.009,104.783-73.109,52.591-40.638,96.615-80.579,142.333-119.325,41.634-35.359,88.946-72.412,151.2-85.659,61.455-12.849,127.592-1.892,188.25,13.347,21.813,5.478,43.427,11.554,65.041,17.231,37.949,10.06,76.1,19.024,115.938,21.813,107.372,7.669,221.318-31.873,292.933-108.07" fill="none" stroke="#000" stroke-linecap="round" stroke-linejoin="round" stroke-miterlimit="10" stroke-width="2.103" stroke-dasharray="1.055 8.444"/>
      <path id="Path_959" data-name="Path 959" d="M12.65,440.844c71.515-49.6,153.389-82.372,237.554-104.285,33.467-8.765,68.029-16.136,102.89-13.546,35.26,2.689,71.416,17.032,90.141,41.734,38.547,51.1-6.474,117.034,42.431,158.17,12.152,10.16,27.889,15.837,45.419,18.327,25.5,3.586,54.184.8,80.28-3.387,87.751-13.944,174.9-31.275,253.391-68.726,59.563-28.487,113.647-69.125,170.322-106.376,37.252-24.4,73.906-48.009,107.771-72.113,54.682-39.144,101.794-75.9,149.9-112.054,42.929-32.172,90.838-66.635,152.792-78.487,61.256-11.454,126.895-.8,187.453,13.546,21.813,5.179,43.328,10.857,64.842,16.036,37.849,9.263,76,17.331,115.54,19.423,107.073,5.677,219.725-34.562,290.045-111.157" fill="none" stroke="#000" stroke-linecap="round" stroke-linejoin="round" stroke-miterlimit="10" stroke-width="2.103" stroke-dasharray="1.055 8.444"/>
      <path id="Path_960" data-name="Path 960" d="M14.343,451.3c69.922-48.706,150.7-79.483,233.47-99.3,32.769-7.869,66.635-14.343,100.6-11.554,34.463,2.988,69.722,16.833,88.747,40.24,39.244,48.308.8,110.46,49.7,148.509,12.152,9.462,27.69,14.642,44.822,16.833,25.1,3.187,52.989.1,78.587-4.283,85.758-14.642,170.62-33.367,246.419-71.814,59.662-30.279,113.249-73.109,171.019-110.759,37.75-24.7,75.5-47.909,110.659-71.117,56.674-37.55,106.974-71.316,157.572-104.683,44.124-29.184,92.631-60.858,154.385-71.316,61.057-10.06,126.3.3,186.657,13.745,21.714,4.881,43.228,10.06,64.742,14.941,37.75,8.466,75.9,15.638,115.141,16.933,106.775,3.586,218.231-37.252,287.256-114.245" fill="none" stroke="#000" stroke-linecap="round" stroke-linejoin="round" stroke-miterlimit="10" stroke-width="2.103" stroke-dasharray="1.055 8.444"/>
      <path id="Path_961" data-name="Path 961" d="M16.036,461.761c68.328-47.909,148.011-76.595,229.386-94.324,32.072-6.972,65.141-12.65,98.209-9.562,33.566,3.187,68.029,16.534,87.452,38.646,39.941,45.618,8.167,103.886,57.073,138.947,12.152,8.665,27.49,13.446,44.224,15.239,24.7,2.689,51.893-.5,76.894-5.08,83.766-15.339,166.338-35.658,239.446-74.9,59.762-32.072,112.95-76.993,171.716-115.241,38.347-25,77.093-47.81,113.548-70.22,58.666-36.056,111.954-66.734,165.142-97.412,45.22-26.2,94.524-55.18,155.979-64.145,60.858-8.665,125.6,1.394,185.86,13.944,21.614,4.482,43.128,9.363,64.643,13.745,37.65,7.769,75.7,13.944,114.843,14.542,106.376,1.594,216.637-40.041,284.368-117.333" fill="none" stroke="#000" stroke-linecap="round" stroke-linejoin="round" stroke-miterlimit="10" stroke-width="2.103" stroke-dasharray="1.055 8.444"/>
      <path id="Path_962" data-name="Path 962" d="M17.729,472.219c66.734-47.013,145.321-73.806,225.3-89.444,31.375-6.175,63.746-10.956,95.918-7.669,32.77,3.486,66.336,16.235,86.157,37.152,40.638,42.929,15.439,97.213,64.344,129.385,12.152,7.968,27.192,12.251,43.527,13.745,24.2,2.191,50.8-1.2,75.2-5.976,81.774-16.036,162.055-37.949,232.474-77.989C900.514,437.458,953.3,390.545,1013.065,351.7c38.945-25.3,78.587-47.71,116.436-69.224,60.758-34.463,117.034-62.152,172.812-90.141,46.316-23.208,96.416-49.4,157.572-56.973,60.758-7.371,124.9,2.49,185.163,14.144,21.614,4.183,43.029,8.566,64.543,12.55,37.55,6.972,75.6,12.251,114.444,12.152,106.078-.4,215.043-42.73,281.578-120.42" fill="none" stroke="#000" stroke-linecap="round" stroke-linejoin="round" stroke-miterlimit="10" stroke-width="2.103" stroke-dasharray="1.055 8.444"/>
      <path id="Path_963" data-name="Path 963" d="M19.323,482.678c65.141-46.116,142.632-70.918,221.119-84.464,30.777-5.279,62.252-9.164,93.528-5.677,31.973,3.685,64.643,15.937,84.862,35.558,41.236,40.14,22.809,90.639,71.714,119.823,12.152,7.171,26.992,10.956,42.929,12.152,23.805,1.793,49.6-1.793,73.507-6.873,79.782-16.733,157.672-40.439,225.5-81.077,59.961-35.857,112.452-84.663,173.21-124.006,39.543-25.6,80.181-47.71,119.424-68.228,62.75-32.969,121.915-57.77,180.481-82.87,47.411-20.319,98.209-43.626,159.166-49.8,60.559-5.976,124.205,3.586,184.366,14.343,21.514,3.885,42.929,7.869,64.443,11.355,37.55,6.175,75.5,10.558,114.145,9.662,105.779-2.39,213.45-45.419,278.69-123.508" fill="none" stroke="#000" stroke-linecap="round" stroke-linejoin="round" stroke-miterlimit="10" stroke-width="2.103" stroke-dasharray="1.055 8.444"/>
      <path id="Path_964" data-name="Path 964" d="M21.016,493.136c63.647-45.22,139.943-68.029,217.036-79.483,30.08-4.482,60.758-7.47,91.237-3.685,31.176,3.984,62.949,15.737,83.468,34.064,41.933,37.451,30.08,84.065,78.985,110.161,12.152,6.474,26.694,9.761,42.331,10.658,23.407,1.295,48.507-2.49,71.714-7.769,77.79-17.431,153.289-42.829,218.53-84.165,59.961-37.949,112.054-88.647,173.907-128.588,40.041-25.9,81.675-47.61,122.313-67.332,64.842-31.375,126.895-53.387,188.051-75.5,48.407-17.53,100.1-37.849,160.76-42.63,60.36-4.582,123.608,4.681,183.569,14.542,21.514,3.486,42.829,7.171,64.244,10.16,37.451,5.379,75.3,8.865,113.747,7.271,105.48-4.482,211.956-48.208,275.9-126.6" fill="none" stroke="#000" stroke-linecap="round" stroke-linejoin="round" stroke-miterlimit="10" stroke-width="2.103" stroke-dasharray="1.055 8.444"/>
      <path id="Path_965" data-name="Path 965" d="M22.71,503.594c62.053-44.423,137.253-65.24,212.952-74.5,29.383-3.586,59.364-5.777,88.846-1.693,30.279,4.183,61.256,15.439,82.173,32.471,42.63,34.762,37.451,77.491,86.356,100.6,12.152,5.777,26.494,8.566,41.734,9.164,23.008.8,47.411-3.187,70.021-8.566,75.9-18.128,148.807-45.419,211.557-87.253,59.961-40.041,111.755-92.631,174.6-133.07,40.638-26.2,83.268-47.61,125.2-66.336,66.834-29.881,131.775-49.1,195.721-68.228,49.5-14.841,101.994-32.072,162.353-35.459,60.161-3.187,122.911,5.777,182.872,14.741,21.415,3.187,42.829,6.375,64.145,9.064,37.351,4.582,75.2,7.271,113.448,4.881,105.181-6.474,210.362-50.9,273.013-129.684" fill="none" stroke="#000" stroke-linecap="round" stroke-linejoin="round" stroke-miterlimit="10" stroke-width="2.103" stroke-dasharray="1.055 8.444"/>
      <path id="Path_966" data-name="Path 966" d="M24.3,514.053C84.762,470.526,158.867,451.6,233.072,444.53c28.686-2.789,57.87-3.984,86.555.2,29.483,4.482,59.563,15.14,80.878,30.977,43.228,32.072,44.722,70.918,93.627,91.037,12.251,4.98,26.2,7.371,41.136,7.57,22.51.3,46.216-3.785,68.328-9.462,73.906-18.825,144.325-47.909,204.685-90.34,59.862-42.132,111.456-96.516,175.3-137.552,41.236-26.495,84.862-47.511,128.09-65.34,68.826-28.387,136.755-45.021,203.29-60.957,50.5-12.152,103.787-26.3,163.947-28.287,59.961-1.793,122.213,6.972,182.075,14.941,21.415,2.888,42.73,5.677,64.045,7.869,37.252,3.885,75,5.578,113.05,2.49,104.783-8.466,208.769-53.587,270.124-132.771" fill="none" stroke="#000" stroke-linecap="round" stroke-linejoin="round" stroke-miterlimit="10" stroke-width="2.103" stroke-dasharray="1.055 8.444"/>
      <path id="Path_967" data-name="Path 967" d="M26,524.511c58.866-42.73,131.775-59.662,204.685-64.543,27.989-1.892,56.475-2.291,84.264,2.191,28.686,4.781,57.87,14.94,79.583,29.383,43.925,29.383,52.093,64.344,101,81.476,12.251,4.283,26,6.175,40.539,6.076,22.112-.1,45.12-4.482,66.635-10.359,71.914-19.522,139.843-50.6,197.713-93.428,59.762-44.323,111.157-100.4,176-141.935,41.833-26.793,86.356-47.511,131.078-64.443,70.917-26.893,141.736-40.937,210.96-53.686,51.594-9.462,105.679-20.518,165.541-21.116,59.762-.5,121.516,8.068,181.278,15.14,21.315,2.59,42.63,4.98,63.945,6.673,37.152,3.088,74.9,3.885,112.651,0,104.484-10.558,207.275-56.375,267.335-135.859" fill="none" stroke="#000" stroke-linecap="round" stroke-linejoin="round" stroke-miterlimit="10" stroke-width="2.103" stroke-dasharray="1.055 8.444"/>
      <path id="Path_968" data-name="Path 968" d="M27.69,535.069c57.272-41.833,129.086-56.874,200.6-59.662,27.391-1.1,54.981-.6,81.874,4.183,27.889,4.98,56.176,14.642,78.189,27.889,44.523,26.694,59.364,57.77,108.269,71.814,12.251,3.486,25.8,4.881,39.941,4.482,21.714-.6,44.025-5.08,64.941-11.156,69.922-20.219,135.261-53.188,190.74-96.516C851.907,429.589,903,371.819,968.941,329.687c42.331-27.092,87.95-47.411,133.966-63.447,72.91-25.3,146.616-36.853,218.53-46.415,52.591-6.972,107.472-14.741,167.134-13.944,59.662.9,120.918,9.164,180.581,15.339,21.315,2.191,42.531,4.183,63.846,5.478,37.052,2.291,74.8,2.191,112.353-2.39,104.185-12.55,205.681-59.065,264.447-138.947" fill="none" stroke="#000" stroke-linecap="round" stroke-linejoin="round" stroke-miterlimit="10" stroke-width="2.103" stroke-dasharray="1.055 8.444"/>
      <path id="Path_969" data-name="Path 969" d="M29.383,545.527c55.778-40.937,126.4-54.085,196.517-54.682,26.694-.2,53.487,1.2,79.583,6.175,27.092,5.279,54.483,14.442,76.894,26.3,45.12,24,66.734,51.2,115.639,62.252a144.864,144.864,0,0,0,39.343,2.988c21.216-1.1,42.829-5.777,63.149-12.052,67.929-20.817,130.58-55.877,183.768-99.6C843.64,428.1,894.737,368.732,961.77,326c42.929-27.391,89.444-47.411,136.855-62.451,74.9-23.805,151.7-32.969,226.2-39.045,53.786-4.383,109.365-8.964,168.728-6.773,59.463,2.291,120.221,10.259,179.784,15.538,21.216,1.892,42.431,3.486,63.746,4.283,37.052,1.494,74.6.4,111.954-4.781,103.787-14.841,204.087-61.754,261.658-141.935" fill="none" stroke="#000" stroke-linecap="round" stroke-linejoin="round" stroke-miterlimit="10" stroke-width="2.103" stroke-dasharray="1.055 8.444"/>
      <path id="Path_970" data-name="Path 970" d="M30.977,555.986c54.184-40.14,123.707-51.3,192.334-49.7,26,.6,52.093,2.888,77.193,8.068a354.08,354.08,0,0,1,75.6,24.8c45.818,21.315,74.005,44.622,122.91,52.69a160.666,160.666,0,0,0,38.746,1.394c20.817-1.594,41.734-6.474,61.455-12.948,65.937-21.514,125.9-58.567,176.8-102.691,59.065-51.2,110.161-112.054,178.19-155.381,43.527-27.69,90.938-47.411,139.744-61.455,76.894-22.51,156.676-29.084,233.869-31.773,54.881-1.892,111.257-3.187,170.322.3,59.264,3.685,119.524,11.355,178.987,15.737,21.216,1.594,42.331,2.689,63.547,3.187a619.9,619.9,0,0,0,111.655-7.271c103.488-16.833,202.593-64.543,258.769-145.022" fill="none" stroke="#000" stroke-linecap="round" stroke-linejoin="round" stroke-miterlimit="10" stroke-width="2.103" stroke-dasharray="1.055 8.444"/>
      <path id="Path_971" data-name="Path 971" d="M32.67,566.444C85.26,527.2,153.688,517.937,220.92,521.722a456.243,456.243,0,0,1,74.9,10.06,508.093,508.093,0,0,1,74.3,23.208c46.415,18.626,81.376,37.949,130.281,43.128a186.933,186.933,0,0,0,38.048-.1,265.714,265.714,0,0,0,59.762-13.745c63.846-22.311,121.217-61.356,169.724-105.779C826.708,424.908,877.8,362.456,946.829,318.731c44.124-27.989,92.532-47.312,142.732-60.559,78.985-20.917,161.756-23.008,241.438-24.5,56.077-1.1,113.05,2.59,171.915,7.47,59.065,5.08,118.827,12.45,178.19,15.937q31.674,1.942,63.447,1.992a627.326,627.326,0,0,0,111.257-9.662c103.189-18.825,201-67.232,255.98-148.11" fill="none" stroke="#000" stroke-linecap="round" stroke-linejoin="round" stroke-miterlimit="10" stroke-width="2.103" stroke-dasharray="1.055 8.444"/>
      <path id="Path_972" data-name="Path 972" d="M34.363,576.9c51-38.347,118.329-45.917,184.167-39.742a491.731,491.731,0,0,1,72.511,12.052c24.6,6.076,49.3,13.745,72.91,21.714C411.063,586.962,452.6,602.3,501.5,604.393a226.321,226.321,0,0,0,37.451-1.594,266.854,266.854,0,0,0,58.069-14.642c61.953-22.909,116.436-64.045,162.851-108.866,58.168-56.077,109.564-119.922,179.585-164.246,44.622-28.287,94.125-47.312,145.62-59.563,80.978-19.423,166.935-21.514,249.108-17.231,57.272,2.988,114.942,8.367,173.509,14.642,58.866,6.375,118.229,13.546,177.493,16.136,21.116.9,42.132,1.295,63.348.8a636.571,636.571,0,0,0,110.958-12.052c102.791-20.917,199.406-69.922,253.092-151.2" fill="none" stroke="#000" stroke-linecap="round" stroke-linejoin="round" stroke-miterlimit="10" stroke-width="2.103" stroke-dasharray="1.055 8.444"/>
      <path id="Path_973" data-name="Path 973" d="M35.957,587.361c67.83-51.495,167.334-42.73,250.2-20.817S453.2,621.027,539.551,607.481c84.663-13.347,154.684-68.826,212.255-127.393,57.571-58.666,109.265-123.807,180.282-168.728,116.337-73.408,266.738-81.376,405.286-68.527s275.2,43.726,415.047,37.75c139.744-5.976,289.746-58.069,360.763-168.828" fill="none" stroke="#000" stroke-linecap="round" stroke-linejoin="round" stroke-miterlimit="10" stroke-width="2.103" stroke-dasharray="1.055 8.444"/>
    </g>
  </g>
</svg>
