<?xml version="1.0" encoding="utf-8"?>
<!-- Generator: Adobe Illustrator 24.1.0, SVG Export Plug-In . SVG Version: 6.00 Build 0)  -->
<svg version="1.1" id="Ebene_1" xmlns="http://www.w3.org/2000/svg" xmlns:xlink="http://www.w3.org/1999/xlink" x="0px" y="0px"
     viewBox="0 0 42.5 44.4" style="enable-background:new 0 0 42.5 44.4;" xml:space="preserve">
<style type="text/css">
	.st0{fill:#1EA637;}
	.st1{fill:#EAD433;}
</style>
    <g>
	<path class="st0" d="M26.6,10.6c-0.7-0.5-2.6-2.1-3.2-5C23,3.3,23.5,0.2,24.7,0c1.2-0.3,3.1,2.3,3.6,4.7
		C28.8,7.8,26.9,10.2,26.6,10.6z"/>
        <path class="st0" d="M28.3,12.4c1,0.6,4,2.2,7.8,1.5c3.1-0.6,6.6-2.8,6.4-4.4s-4.3-2.8-7.6-2C30.7,8.2,28.7,11.7,28.3,12.4z"/>
        <path class="st1" d="M24.6,36.1c4.4-6,4.9-13.4,1.7-18.2c0.9-1.5,0.5-3.5-1-4.6s-3.5-0.8-4.7,0.5c-5.5-1.6-12.4,1.1-16.8,7.1
		s-4.9,13.4-1.7,18.2c-0.9,1.5-0.5,3.5,1,4.6s3.5,0.8,4.7-0.5C13.3,44.8,20.2,42.1,24.6,36.1z"/>
</g>
</svg>
